<?xml version="1.0" encoding="UTF-8" standalone="no"?>
<!-- Created with Inkscape (http://www.inkscape.org/) -->

<svg
   xmlns:dc="http://purl.org/dc/elements/1.1/"
   xmlns:cc="http://creativecommons.org/ns#"
   xmlns:rdf="http://www.w3.org/1999/02/22-rdf-syntax-ns#"
   xmlns:svg="http://www.w3.org/2000/svg"
   xmlns="http://www.w3.org/2000/svg"
   xmlns:sodipodi="http://sodipodi.sourceforge.net/DTD/sodipodi-0.dtd"
   xmlns:inkscape="http://www.inkscape.org/namespaces/inkscape"
   width="210mm"
   height="297mm"
   viewBox="0 0 210 297"
   version="1.1"
   id="svg3737"
   inkscape:version="0.92.4 (5da689c313, 2019-01-14)"
   sodipodi:docname="VGX.svg">
  <title
     id="title3792">VGX - Video Game eXchange</title>
  <defs
     id="defs3731" />
  <sodipodi:namedview
     id="base"
     pagecolor="#ffffff"
     bordercolor="#666666"
     borderopacity="1.0"
     inkscape:pageopacity="0.0"
     inkscape:pageshadow="2"
     inkscape:zoom="1.4142136"
     inkscape:cx="332.41727"
     inkscape:cy="853.80913"
     inkscape:document-units="px"
     inkscape:current-layer="layer2"
     showgrid="false"
     showborder="false"
     inkscape:snap-nodes="false"
     inkscape:window-width="3440"
     inkscape:window-height="1377"
     inkscape:window-x="-8"
     inkscape:window-y="-8"
     inkscape:window-maximized="1" />
  <metadata
     id="metadata3734">
    <rdf:RDF>
      <cc:Work
         rdf:about="">
        <dc:format>image/svg+xml</dc:format>
        <dc:type
           rdf:resource="http://purl.org/dc/dcmitype/StillImage" />
        <dc:title>VGX - Video Game eXchange</dc:title>
      </cc:Work>
    </rdf:RDF>
  </metadata>
  <g
     inkscape:groupmode="layer"
     id="layer2"
     inkscape:label="White"
     style="opacity:1">
    <path
       style="fill:#ffffff;stroke:#ffffff;stroke-width:5.35355338"
       d="m 390.39192,337.42336 c -17.063,-2.78816 -36.83403,-11.01754 -51.23415,-21.3254 -7.0155,-5.02182 -19.95389,-19.40732 -23.72478,-26.37831 l -1.00939,-1.866 1.87075,-5.26381 c 14.18802,-39.9213 55.68117,-151.90886 57.7787,-155.94131 1.01498,-1.95126 2.08724,-2.56954 6.27662,-3.61919 11.44344,-2.86716 18.12857,-3.35166 42.74594,-3.09801 19.96733,0.20575 22.19128,0.35702 32.17336,2.18843 29.56987,5.42518 56.46483,17.36108 76.19075,33.81323 4.87742,4.06795 21.26129,20.30393 26.05056,25.81542 2.16866,2.49569 4.03572,4.53142 4.14903,4.52383 0.41705,-0.0279 5.44159,-7.31226 30.0519,-43.56787 l 16.02369,-23.60589 28.04771,0.0946 c 20.40709,0.0688 28.15745,0.20437 28.45056,0.49755 0.48606,0.48618 0.9292,-0.18255 -30.1896,45.55899 -34.45511,50.64559 -38.76746,57.01697 -38.76746,57.27787 0,0.31809 21.96663,33.04044 42.95735,63.99094 20.944,30.88161 28.51843,42.21823 28.71831,42.98261 0.10838,0.41443 -0.14152,0.65413 -0.84759,0.81299 -1.04152,0.23435 -35.19773,0.88562 -47.8471,0.91234 l -7.24784,0.0153 -1.00593,-1.59224 c -2.0138,-3.18755 -27.48533,-40.52786 -33.22424,-48.70548 -5.57,-7.93694 -15.38847,-21.44821 -16.33054,-22.47257 -0.35006,-0.38064 -0.66579,-0.0449 -1.66224,1.76776 -2.84482,5.17497 -13.15362,19.6195 -18.99882,26.62084 -9.3378,11.18476 -22.13579,23.87686 -24.07606,23.87686 -0.45714,0 -0.64385,-5.69825 -1.06579,-32.52692 l -0.41981,-26.69328 2.38629,-4.06586 c 3.46373,-5.90165 8.36141,-15.63578 10.08458,-20.04309 l 1.49327,-3.81929 -0.96903,-3.00644 c -7.59889,-23.57564 -20.07835,-38.25738 -42.07967,-49.5055 -10.75677,-5.49938 -26.11532,-10.42363 -39.595,-12.69492 -10.47529,-1.76505 -29.38955,-1.87876 -37.17712,-0.2235 -13.38591,2.84521 -24.2563,8.46003 -32.62919,16.85376 -9.32523,9.34846 -15.16867,21.85546 -17.93262,38.38211 -0.93789,5.60797 -0.93459,26.09553 0.005,31.75877 1.36352,8.21745 4.28497,17.85913 7.12444,23.51287 7.01816,13.97398 18.84949,24.06424 33.99684,28.99392 7.55406,2.45846 9.27824,2.653 23.10125,2.60656 6.70867,-0.0226 14.24213,-0.23011 16.74101,-0.46126 4.28694,-0.39654 10.28487,-1.67715 12.23671,-2.61264 l 0.88166,-0.42257 -0.11409,-21.21224 c -0.0628,-11.66674 -0.1615,-21.26154 -0.21944,-21.32178 -0.058,-0.0602 -7.28181,-0.20487 -16.05304,-0.3214 -8.77122,-0.11653 -15.94767,-0.33363 -15.94767,-0.48244 0,-0.92109 12.32284,-34.67003 12.86832,-35.24286 0.33265,-0.34933 8.10857,-0.53784 35.49216,-0.86039 19.28641,-0.22717 35.13429,-0.34407 35.21753,-0.25977 0.0832,0.0843 0.0461,23.20025 -0.0824,51.36876 l -0.23376,51.21548 -3.88909,1.76111 c -17.06163,7.72611 -38.55315,13.60345 -57.39836,15.69689 -7.21699,0.80171 -46.6732,1.04276 -51.14253,0.31245 z"
       id="path3782"
       inkscape:connector-curvature="0"
       transform="scale(0.26458333)" />
    <path
       style="fill:#ffffff;stroke:#ffffff;stroke-width:7"
       d="m 218.69036,327.6532 c -1.74383,-3.25838 -19.09667,-49.52812 -50.43207,-134.47246 -12.76846,-34.61288 -23.84211,-64.39434 -24.60811,-66.18103 -3.22706,-7.52703 -3.49608,-7.4512 24.96029,-7.03573 l 26.35304,0.38476 26.49533,72.832 c 32.59657,89.60344 29.5516,81.9254 31.27141,78.85236 1.11793,-1.99759 27.29371,-72.80016 51.37232,-138.95644 l 4.63254,-12.72792 26.46804,-0.38515 26.46805,-0.38514 -0.97976,3.21357 c -1.53155,5.02348 -33.67036,92.37879 -55.81401,151.706 -11.03205,29.55706 -20.79216,54.20767 -21.68911,54.77912 -0.89697,0.57146 -15.45007,1.04875 -32.34023,1.06066 -28.81202,0.0204 -30.79887,-0.14555 -32.15773,-2.6846 z"
       id="path3794"
       inkscape:connector-curvature="0"
       transform="scale(0.26458333)" />
  </g>
  <g
     inkscape:groupmode="layer"
     id="layer3"
     inkscape:label="Black"
     style="display:inline;opacity:1"
     sodipodi:insensitive="true">
    <path
       style="fill:#000000;stroke-width:0.5"
       d="m 394.08465,357.63535 c -0.275,-0.10731 -3.73,-0.66061 -7.67779,-1.22957 -17.62823,-2.54057 -31.75,-7.73348 -52.32221,-19.24009 -11.29767,-6.3191 -13.92271,-7.44521 -17.89044,-7.67474 -3.07526,-0.1779 -3.58048,-0.0645 -5.43455,1.22043 -1.12426,0.77911 -4.17673,3.78614 -6.78327,6.6823 -6.82383,7.58203 -9.34747,9.45879 -15.14174,11.26054 -4.26889,1.32742 -18.50589,1.71808 -45.87408,1.25877 -22.12543,-0.37132 -24.72994,-0.50293 -28.21046,-1.42553 -8.97712,-2.37962 -12.6487,-6.11764 -17.75669,-18.07805 -2.40246,-5.62537 -6.81368,-17.38839 -32.96841,-87.91398 -35.65765,-96.14999 -39.23231,-106.08279 -40.93876,-113.75532 -0.65073,-2.92583 -0.81865,-5.40717 -0.66242,-9.78896 0.18296,-5.13143 0.38104,-6.22072 1.57494,-8.66097 1.67624,-3.42611 4.48588,-6.03555 8.54268,-7.93395 5.51644,-2.581456 6.88719,-2.685246 35.5432,-2.691259 29.60114,-0.0062 29.50421,-0.01571 36.30004,3.555409 7.59369,3.99037 8.79191,6.32326 23.15298,45.07797 7.93331,21.40881 12.4646,33.16732 14.70224,38.15177 3.34222,7.44494 7.95998,10.07885 13.0857,7.4639 4.41339,-2.25154 5.96313,-5.61134 18.10659,-39.25461 17.25014,-47.79129 18.37408,-48.19711 26.13515,-52.3341 0,0 6.43302,-2.630037 11.28413,-2.630809 5.86192,-9.32e-4 15.67694,0.06648 15.67694,0.06648 10.74538,0.264929 28.11429,0.634599 39.55623,0.694959 19.24693,0.10154 20.53286,0.54863 34,-0.544029 7.7,-0.62474 18.8375,-1.240755 24.75,-1.368923 9.73294,-0.210985 11.6488,-0.106097 20.25,1.108624 22.68576,3.203838 42.53609,8.619588 61.33756,16.734668 13.32101,5.74961 23.30336,11.5889 35.91244,21.00741 7.98928,5.96769 10.175,7.00589 14.75,7.00614 6.13646,3.4e-4 8.98523,-2.35445 18.13505,-14.99042 16.21401,-22.39166 18.31231,-24.43627 29.73183,-28.97108 0,0 1.89183,-0.806044 2.91375,-0.919715 12.10854,-1.346864 29.64872,-0.28551 29.64872,-0.28551 32.43985,0.765195 30.17045,0.695917 36.50515,3.378845 3.8485,1.89261 6.09605,4.00046 7.6587,7.18266 1.346,2.74098 1.4068,3.17814 1.4068,10.1148 0,0 0.34449,2.6367 -1.4205,7 -4.04677,10.00415 -10.18168,18.88572 -10.18168,18.88572 -2.8902,4.89093 -2.78352,5.06428 -15.96667,24.86428 -13.18315,19.8 -25.4091,38.3625 -27.16875,41.25 l -3.1994,5.25 -3.40025,5.04995 2.97475,5.17496 3.135,5.13754 c 1.72425,2.82565 13.03445,20.10005 25.1338,38.38755 29.29435,44.27685 32.2532,49.07033 33.79515,54.75 1.1092,4.08561 0.3417,8.712 -2.32255,14 -3.0288,6.01162 -5.3378,7.60441 -13.3806,9.23022 -4.6339,0.9367 -6.89385,1.01043 -30.9983,1.01129 -14.7413,5e-4 -27.40734,-0.21451 -29.25,-0.49658 -7.00047,-1.07165 -11.06781,-2.70364 -14.52707,-5.82887 -2.17383,-1.96393 -9.05765,-10.91708 -18.00034,-23.41138 -6.28006,-8.7742 -11.35542,-14.33893 -14.13855,-15.50179 -2.65593,-1.10972 -6.17013,-0.93915 -9.08404,0.4409 -3.23936,1.53419 -5.08929,2.94245 -13.25,10.08652 -11.36321,9.94762 -20.72622,16.43402 -33.12142,22.94548 -19.52769,10.2583 -38.35886,15.64677 -65.54323,18.75494 -7.59131,0.86796 -11.85911,1.01341 -28.75,0.97979 -10.90944,-0.0217 -20.06035,-0.12727 -20.33535,-0.23458 z m 46,-20.23543 c 18.70856,-1.96053 40.91291,-7.79015 56.5,-14.83376 l 6.5,-2.93726 0.12735,-51.38171 0.12735,-51.38171 -35.37735,0.3346 c -19.45754,0.18403 -35.50587,0.47516 -35.66295,0.64696 -0.26519,0.29004 -11.94992,32.44573 -12.693,34.9304 l -0.33436,1.11803 16.15648,0.13197 16.15648,0.13197 0.13034,21.33304 0.13033,21.33305 -2.39823,0.79656 c -5.70534,1.89501 -9.78708,2.34867 -23.61244,2.62437 -15.39954,0.30709 -19.44887,-0.11295 -27.68265,-2.87152 -14.72374,-4.9329 -26.28764,-14.97147 -33.29022,-28.89906 -2.49173,-4.95586 -5.34718,-14.18101 -6.59805,-21.31644 -0.96454,-5.50208 -1.13948,-8.26556 -1.13948,-18 0,-9.79642 0.17072,-12.4615 1.15245,-17.99056 4.00508,-22.55655 14.94788,-38.22016 33.00991,-47.25065 4.09614,-2.04795 12.20942,-4.70623 17.87504,-5.85669 7.03984,-1.4295 27.17829,-1.27233 35.923,0.28036 13.76149,2.44346 27.11911,6.54865 37.5,11.52485 22.58894,10.82826 35.91906,25.42732 43.491,47.63104 l 1.99101,5.83834 -0.98332,2.89286 c -1.32891,3.90959 -5.93651,13.27603 -9.68013,19.67798 l -3.06856,5.24754 0.0411,16.25246 c 0.0504,19.93175 0.63015,42.84035 1.09602,43.30622 1.53386,1.53386 20.11558,-17.61916 30.48097,-31.41812 1.91518,-2.5496 5.87748,-8.20134 8.80511,-12.55942 l 5.32295,-7.92379 1.69469,1.92379 c 4.55233,5.16775 18.11477,24.42532 39.30919,55.81588 l 10,14.81076 26.00002,-0.24975 c 26.8368,-0.25779 30.25,-0.40235 30.25,-1.28122 0,-0.52551 -5.1339,-8.17976 -32.98075,-49.17188 -8.59345,-12.65 -20.91122,-30.90666 -27.37284,-40.57036 l -11.7484,-17.57036 11.63934,-17.17964 c 6.40164,-9.4488 21.95295,-32.30127 34.5585,-50.78326 12.6055,-18.48199 23.04705,-33.93701 23.20345,-34.3445 0.20515,-0.53465 -0.1797,-0.82399 -1.3825,-1.03944 -0.91675,-0.16421 -13.81645,-0.23418 -28.66605,-0.1555 l -26.99928,0.14306 -5.9304,8.75 c -23.98489,35.38848 -38.09668,56.07205 -39.00556,57.17024 l -1.06551,1.28746 -4.5,-5.26857 c -5.333,-6.24383 -19.55405,-20.23602 -26.25,-25.82754 -21.0468,-17.57536 -51.58569,-30.17217 -84.04392,-34.6668 -8.10197,-1.12192 -44.243,-1.31767 -52.45608,-0.28412 -7.02032,0.88345 -16.98239,2.98931 -18.36857,3.88288 -0.61521,0.39659 -1.5428,1.56153 -2.06131,2.58876 -0.93561,1.85356 -7.76093,19.59249 -11.52853,29.96248 -1.08009,2.97287 -4.02461,10.91771 -6.54339,17.65521 -4.86148,13.004 -7.6019,20.42603 -17.72296,48 -3.4824,9.4875 -7.12563,19.3875 -8.09606,22 -3.15163,8.48451 -12.25182,33.61959 -14.00384,38.67917 l -1.70686,4.92917 1.27945,2.18323 c 3.82628,6.52904 14.43784,18.75869 20.58193,23.72033 15.18853,12.26543 40.10902,22.45174 59.17014,24.18594 4.19292,0.38147 39.71834,-0.18005 44.75,-0.70733 z m -156.00814,-7.48343 c 0.49212,-0.40861 1.33005,-1.75838 1.86205,-2.99949 1.88601,-4.39989 13.50005,-35.52034 48.23846,-129.25759 23.76632,-64.13044 28.72782,-77.87982 28.26877,-78.33887 -0.23067,-0.23066 -12.55595,-0.47378 -27.38951,-0.54026 l -26.97012,-0.12087 -14.6123,40.5 c -35.22478,97.63036 -40.37003,111.63453 -41.41146,112.71243 -0.59017,0.61083 -0.83903,0.36127 -1.74506,-1.75 -2.37139,-5.52587 -14.21397,-37.92348 -38.73339,-105.96243 -7.23449,-20.075 -13.87142,-38.46875 -14.74874,-40.875 l -1.59513,-4.375 H 168.1207 c -14.91566,0 -27.25335,0.13397 -27.4171,0.29772 -0.43712,0.43712 1.96907,7.17799 18.54467,51.95228 40.24707,108.71606 57.7617,155.6718 58.85385,157.78377 0.51688,0.99955 1.19295,1.46291 2.35385,1.61327 0.89577,0.11602 15.37553,0.18665 32.17723,0.15695 26.23495,-0.0463 30.67488,-0.1589 31.44331,-0.79691 z"
       id="path3774"
       inkscape:connector-curvature="0"
       transform="scale(0.26458333)"
       sodipodi:nodetypes="scsscscsssscsccscsscsssssssssssssssccsscsccccssccccccsccssscscccccsccccccccssssssscsscccscsscccsscsscscscccscsccsssscccssssccsccccsscscsccsscssscscc" />
  </g>
</svg>
